<svg xmlns="http://www.w3.org/2000/svg" xmlns:xlink="http://www.w3.org/1999/xlink" width="500" zoomAndPan="magnify" viewBox="0 0 375 374.999991" height="500" preserveAspectRatio="xMidYMid meet" version="1.0"><defs><g/></defs><g fill="#b8adad" fill-opacity="1"><g transform="translate(278.61057, 187.617706)"><g><path d="M 23.796875 6.046875 L -0.328125 1.890625 L -0.625 3.625 L 2.890625 4.234375 C 0.296875 5.0625 -1.484375 6.953125 -1.96875 9.71875 C -2.765625 14.328125 0.296875 18.046875 5.671875 18.96875 C 11.015625 19.890625 15.09375 17.40625 15.890625 12.796875 C 16.375 10.03125 15.359375 7.65625 13.203125 6.015625 L 23.5 7.78125 Z M 5.984375 17.15625 C 1.390625 16.359375 -0.859375 13.6875 -0.21875 9.90625 C 0.453125 6.078125 3.46875 4.328125 8.0625 5.125 C 12.609375 5.90625 14.859375 8.5625 14.1875 12.390625 C 13.546875 16.171875 10.53125 17.9375 5.984375 17.15625 Z M 5.984375 17.15625 "/></g></g></g><g fill="#b8adad" fill-opacity="1"><g transform="translate(275.819875, 204.61037)"><g><path d="M 0.390625 3.765625 C 3.203125 4.796875 3.5 8.640625 4.140625 12.453125 C 4.75 16.0625 5.65625 19.6875 9.203125 20.984375 C 13.234375 22.46875 16.9375 20.59375 18.515625 16.328125 C 19.921875 12.515625 18.296875 8.71875 14.53125 7.03125 L 13.890625 8.765625 C 16.8125 9.984375 17.984375 12.703125 16.875 15.71875 C 15.609375 19.125 13.0625 20.421875 9.84375 19.234375 C 6.859375 18.140625 6.3125 15.15625 5.796875 11.859375 C 5.203125 7.84375 4.671875 3.40625 -0.09375 1.65625 L -0.546875 1.484375 L -5.65625 15.359375 L -4.09375 15.9375 Z M 0.390625 3.765625 "/></g></g></g><g fill="#b8adad" fill-opacity="1"><g transform="translate(270.524036, 219.704672)"><g><path d="M 20.078125 14.140625 L -0.984375 1.65625 L -1.875 3.15625 L 1.1875 4.96875 C -1.515625 4.84375 -3.859375 5.96875 -5.28125 8.375 C -7.671875 12.40625 -6.15625 16.96875 -1.46875 19.75 C 3.203125 22.5 7.90625 21.640625 10.296875 17.609375 C 11.71875 15.203125 11.625 12.625 10.203125 10.3125 L 19.1875 15.640625 Z M -0.515625 18.171875 C -4.515625 15.796875 -5.6875 12.484375 -3.734375 9.171875 C -1.75 5.828125 1.703125 5.28125 5.703125 7.65625 C 9.6875 10 10.828125 13.28125 8.84375 16.625 C 6.890625 19.9375 3.46875 20.515625 -0.515625 18.171875 Z M -0.515625 18.171875 "/></g></g></g><g fill="#b8adad" fill-opacity="1"><g transform="translate(261.202592, 234.847357)"><g/></g></g><g fill="#b8adad" fill-opacity="1"><g transform="translate(257.412232, 239.745904)"><g/></g></g><g fill="#b8adad" fill-opacity="1"><g transform="translate(254.080272, 244.199458)"><g><path d="M 14.53125 19.796875 L -1.453125 1.25 L -2.78125 2.390625 L -0.453125 5.09375 C -2.984375 4.09375 -5.578125 4.421875 -7.6875 6.25 C -11.234375 9.3125 -11.25 14.125 -7.6875 18.25 C -4.140625 22.359375 0.609375 23.046875 4.15625 19.984375 C 6.265625 18.15625 7 15.671875 6.375 13.015625 L 13.203125 20.9375 Z M -6.28125 17.046875 C -9.3125 13.515625 -9.375 10.015625 -6.46875 7.5 C -3.515625 4.96875 -0.0625 5.53125 2.96875 9.0625 C 6 12.5625 6.03125 16.046875 3.078125 18.578125 C 0.171875 21.09375 -3.25 20.546875 -6.28125 17.046875 Z M -6.28125 17.046875 "/></g></g></g><g fill="#b8adad" fill-opacity="1"><g transform="translate(241.128374, 255.546484)"><g><path d="M -2.078125 3.15625 C -0.578125 5.734375 -2.796875 8.890625 -4.703125 12.234375 C -6.546875 15.40625 -8.140625 18.796875 -6.234375 22.0625 C -4.0625 25.765625 0 26.65625 3.921875 24.359375 C 7.4375 22.3125 8.578125 18.359375 6.75 14.65625 L 5.15625 15.59375 C 6.640625 18.40625 5.8125 21.234375 3.03125 22.859375 C -0.109375 24.703125 -2.90625 24.078125 -4.640625 21.125 C -6.25 18.375 -4.75 15.703125 -3.046875 12.84375 C -0.96875 9.359375 1.453125 5.59375 -1.109375 1.21875 L -1.359375 0.796875 L -14.140625 8.265625 L -13.296875 9.703125 Z M -2.078125 3.15625 "/></g></g></g><g fill="#b8adad" fill-opacity="1"><g transform="translate(227.445066, 263.834394)"><g><path d="M 6.515625 23.6875 L -1.8125 0.65625 L -3.453125 1.25 L -2.234375 4.59375 C -4.25 2.78125 -6.78125 2.15625 -9.40625 3.109375 C -13.8125 4.703125 -15.53125 9.1875 -13.671875 14.3125 C -11.828125 19.421875 -7.640625 21.75 -3.234375 20.15625 C -0.609375 19.203125 0.953125 17.140625 1.328125 14.4375 L 4.875 24.28125 Z M -11.9375 13.6875 C -13.53125 9.3125 -12.328125 6.015625 -8.71875 4.703125 C -5.046875 3.390625 -2.046875 5.15625 -0.453125 9.53125 C 1.125 13.890625 -0.078125 17.15625 -3.75 18.46875 C -7.359375 19.78125 -10.359375 18.046875 -11.9375 13.6875 Z M -11.9375 13.6875 "/></g></g></g><g fill="#b8adad" fill-opacity="1"><g transform="translate(210.620792, 269.600679)"><g/></g></g><g fill="#b8adad" fill-opacity="1"><g transform="translate(204.581204, 270.974011)"><g/></g></g><g fill="#b8adad" fill-opacity="1"><g transform="translate(199.182278, 272.29644)"><g><path d="M -1.359375 24.53125 L -1.921875 0.046875 L -3.671875 0.078125 L -3.59375 3.640625 C -4.90625 1.265625 -7.109375 -0.125 -9.90625 -0.0625 C -14.59375 0.046875 -17.65625 3.765625 -17.53125 9.21875 C -17.40625 14.640625 -14.1875 18.171875 -9.5 18.0625 C -6.703125 18 -4.5625 16.546875 -3.359375 14.109375 L -3.109375 24.5625 Z M -15.6875 9.171875 C -15.796875 4.515625 -13.609375 1.78125 -9.765625 1.6875 C -5.875 1.609375 -3.578125 4.234375 -3.46875 8.890625 C -3.359375 13.515625 -5.546875 16.234375 -9.4375 16.3125 C -13.28125 16.40625 -15.578125 13.796875 -15.6875 9.171875 Z M -15.6875 9.171875 "/></g></g></g><g fill="#b8adad" fill-opacity="1"><g transform="translate(181.972895, 272.82698)"><g><path d="M -3.609375 1.125 C -4.078125 4.0625 -7.796875 5.09375 -11.421875 6.453125 C -14.859375 7.75 -18.234375 9.328125 -18.828125 13.0625 C -19.515625 17.3125 -16.953125 20.578125 -12.46875 21.296875 C -8.453125 21.953125 -5.03125 19.640625 -4.109375 15.609375 L -5.921875 15.3125 C -6.5625 18.421875 -9 20.09375 -12.1875 19.578125 C -15.78125 19 -17.53125 16.734375 -16.984375 13.359375 C -16.484375 10.21875 -13.640625 9.109375 -10.53125 7.96875 C -6.6875 6.625 -2.4375 5.234375 -1.640625 0.234375 L -1.5625 -0.25 L -16.171875 -2.59375 L -16.4375 -0.9375 Z M -3.609375 1.125 "/></g></g></g><g fill="#b8adad" fill-opacity="1"><g transform="translate(166.139224, 270.529445)"><g><path d="M -10.015625 22.421875 L -1.8125 -0.640625 L -3.453125 -1.234375 L -4.640625 2.125 C -5.046875 -0.5625 -6.609375 -2.640625 -9.234375 -3.578125 C -13.65625 -5.15625 -17.828125 -2.765625 -19.65625 2.359375 C -21.46875 7.46875 -19.71875 11.921875 -15.296875 13.5 C -12.671875 14.4375 -10.15625 13.828125 -8.15625 11.984375 L -11.65625 21.828125 Z M -17.921875 2.96875 C -16.359375 -1.40625 -13.34375 -3.171875 -9.71875 -1.890625 C -6.046875 -0.59375 -4.84375 2.6875 -6.40625 7.0625 C -7.953125 11.421875 -10.953125 13.1875 -14.625 11.890625 C -18.25 10.609375 -19.46875 7.328125 -17.921875 2.96875 Z M -17.921875 2.96875 "/></g></g></g><g fill="#b8adad" fill-opacity="1"><g transform="translate(149.480887, 264.288102)"><g/></g></g><g fill="#b8adad" fill-opacity="1"><g transform="translate(143.945013, 261.51021)"><g/></g></g><g fill="#b8adad" fill-opacity="1"><g transform="translate(138.940053, 259.10159)"><g><path d="M -16.640625 18.0625 L -1.515625 -1.1875 L -2.890625 -2.265625 L -5.09375 0.53125 C -4.59375 -2.140625 -5.421875 -4.609375 -7.625 -6.34375 C -11.296875 -9.234375 -16.03125 -8.3125 -19.390625 -4.03125 C -22.75 0.234375 -22.484375 5.015625 -18.8125 7.90625 C -16.609375 9.640625 -14.03125 9.875 -11.5625 8.765625 L -18.015625 16.984375 Z M -17.9375 -2.890625 C -15.0625 -6.546875 -11.625 -7.265625 -8.609375 -4.890625 C -5.546875 -2.5 -5.453125 1 -8.328125 4.65625 C -11.1875 8.296875 -14.578125 9 -17.640625 6.609375 C -20.65625 4.234375 -20.796875 0.75 -17.9375 -2.890625 Z M -17.9375 -2.890625 "/></g></g></g><g fill="#b8adad" fill-opacity="1"><g transform="translate(125.317495, 248.575095)"><g><path d="M -3.5 -1.4375 C -5.734375 0.53125 -9.265625 -1.03125 -12.921875 -2.265625 C -16.390625 -3.46875 -20 -4.375 -22.84375 -1.875 C -26.0625 0.96875 -26.171875 5.125 -23.171875 8.53125 C -20.484375 11.578125 -16.375 11.96875 -13.09375 9.4375 L -14.3125 8.0625 C -16.78125 10.046875 -19.71875 9.78125 -21.859375 7.375 C -24.265625 4.640625 -24.171875 1.796875 -21.609375 -0.46875 C -19.21875 -2.578125 -16.3125 -1.640625 -13.1875 -0.53125 C -9.359375 0.84375 -5.21875 2.484375 -1.40625 -0.859375 L -1.046875 -1.1875 L -10.828125 -12.28125 L -12.078125 -11.171875 Z M -3.5 -1.4375 "/></g></g></g><g fill="#b8adad" fill-opacity="1"><g transform="translate(114.550725, 236.738075)"><g><path d="M -21.984375 10.953125 L -0.984375 -1.640625 L -1.890625 -3.140625 L -4.9375 -1.3125 C -3.53125 -3.640625 -3.421875 -6.234375 -4.859375 -8.640625 C -7.28125 -12.65625 -12 -13.46875 -16.6875 -10.671875 C -21.328125 -7.875 -22.8125 -3.328125 -20.390625 0.6875 C -18.953125 3.09375 -16.640625 4.21875 -13.921875 4.078125 L -22.890625 9.453125 Z M -15.734375 -9.09375 C -11.734375 -11.484375 -8.28125 -10.953125 -6.3125 -7.65625 C -4.3125 -4.3125 -5.453125 -1 -9.453125 1.390625 C -13.40625 3.78125 -16.84375 3.21875 -18.84375 -0.125 C -20.8125 -3.421875 -19.6875 -6.703125 -15.734375 -9.09375 Z M -15.734375 -9.09375 "/></g></g></g><g fill="#b8adad" fill-opacity="1"><g transform="translate(105.651489, 221.331209)"><g/></g></g><g fill="#b8adad" fill-opacity="1"><g transform="translate(103.142675, 215.668315)"><g/></g></g><g fill="#b8adad" fill-opacity="1"><g transform="translate(100.81302, 210.629334)"><g><path d="M -24.328125 3.375 L -0.40625 -1.875 L -0.78125 -3.59375 L -4.265625 -2.828125 C -2.1875 -4.578125 -1.25 -7 -1.84375 -9.734375 C -2.84375 -14.3125 -7.078125 -16.609375 -12.40625 -15.4375 C -17.703125 -14.28125 -20.546875 -10.421875 -19.546875 -5.84375 C -18.953125 -3.109375 -17.125 -1.296875 -14.484375 -0.578125 L -24.703125 1.65625 Z M -12.015625 -13.625 C -7.46875 -14.625 -4.359375 -13.015625 -3.546875 -9.25 C -2.703125 -5.453125 -4.84375 -2.703125 -9.390625 -1.703125 C -13.90625 -0.71875 -16.984375 -2.3125 -17.828125 -6.109375 C -18.640625 -9.875 -16.53125 -12.640625 -12.015625 -13.625 Z M -12.015625 -13.625 "/></g></g></g><g fill="#b8adad" fill-opacity="1"><g transform="translate(96.986691, 193.845284)"><g><path d="M -1.78125 -3.328125 C -4.765625 -3.234375 -6.5 -6.671875 -8.53125 -9.96875 C -10.453125 -13.078125 -12.671875 -16.09375 -16.4375 -15.953125 C -20.734375 -15.8125 -23.453125 -12.671875 -23.296875 -8.140625 C -23.171875 -4.078125 -20.234375 -1.171875 -16.09375 -1.03125 L -16.15625 -2.875 C -19.34375 -2.90625 -21.4375 -4.984375 -21.546875 -8.203125 C -21.671875 -11.84375 -19.796875 -13.984375 -16.375 -14.09375 C -13.203125 -14.203125 -11.5625 -11.65625 -9.859375 -8.796875 C -7.78125 -5.296875 -5.609375 -1.390625 -0.53125 -1.5625 L -0.046875 -1.578125 L -0.5625 -16.359375 L -2.234375 -16.296875 Z M -1.78125 -3.328125 "/></g></g></g><g fill="#b8adad" fill-opacity="1"><g transform="translate(96.669143, 177.207856)"><g/></g></g><g fill="#b8adad" fill-opacity="1"><g transform="translate(96.668194, 171.656978)"><g><path d="M -23.515625 -7.125 L 0.40625 -1.875 L 0.78125 -3.59375 L -2.703125 -4.359375 C -0.0625 -5.078125 1.8125 -6.875 2.40625 -9.609375 C 3.40625 -14.1875 0.515625 -18.046875 -4.8125 -19.21875 C -10.109375 -20.375 -14.296875 -18.078125 -15.296875 -13.5 C -15.890625 -10.765625 -15 -8.359375 -12.921875 -6.609375 L -23.140625 -8.84375 Z M -5.203125 -17.40625 C -0.65625 -16.40625 1.484375 -13.640625 0.671875 -9.875 C -0.171875 -6.078125 -3.28125 -4.484375 -7.828125 -5.484375 C -12.34375 -6.46875 -14.453125 -9.21875 -13.609375 -13.015625 C -12.796875 -16.78125 -9.71875 -18.390625 -5.203125 -17.40625 Z M -5.203125 -17.40625 "/></g></g></g><g fill="#b8adad" fill-opacity="1"><g transform="translate(100.772593, 154.34381)"><g/></g></g><g fill="#b8adad" fill-opacity="1"><g transform="translate(102.836858, 148.504183)"><g/></g></g><g fill="#b8adad" fill-opacity="1"><g transform="translate(104.607228, 143.242839)"><g><path d="M -20.015625 -14.234375 L 0.984375 -1.640625 L 1.890625 -3.140625 L -1.15625 -4.96875 C 1.5625 -4.828125 3.890625 -5.953125 5.328125 -8.359375 C 7.75 -12.375 6.25 -16.9375 1.5625 -19.734375 C -3.078125 -22.53125 -7.78125 -21.703125 -10.203125 -17.6875 C -11.640625 -15.28125 -11.546875 -12.6875 -10.140625 -10.359375 L -19.109375 -15.734375 Z M 0.609375 -18.15625 C 4.609375 -15.765625 5.75 -12.453125 3.78125 -9.15625 C 1.78125 -5.8125 -1.671875 -5.28125 -5.671875 -7.671875 C -9.625 -10.0625 -10.75 -13.34375 -8.75 -16.6875 C -6.78125 -19.984375 -3.34375 -20.546875 0.609375 -18.15625 Z M 0.609375 -18.15625 "/></g></g></g><g fill="#b8adad" fill-opacity="1"><g transform="translate(113.351552, 128.414057)"><g><path d="M 1 -3.65625 C -1.234375 -5.625 -0.140625 -9.3125 0.640625 -13.109375 C 1.390625 -16.6875 1.84375 -20.40625 -1 -22.90625 C -4.21875 -25.75 -8.359375 -25.3125 -11.359375 -21.90625 C -14.046875 -18.859375 -13.90625 -14.75 -11 -11.8125 L -9.78125 -13.1875 C -12.0625 -15.390625 -12.1875 -18.34375 -10.046875 -20.75 C -7.640625 -23.484375 -4.796875 -23.765625 -2.234375 -21.5 C 0.15625 -19.390625 -0.40625 -16.390625 -1.125 -13.15625 C -2.015625 -9.1875 -3.125 -4.859375 0.6875 -1.515625 L 1.046875 -1.1875 L 10.828125 -12.28125 L 9.578125 -13.390625 Z M 1 -3.65625 "/></g></g></g><g fill="#b8adad" fill-opacity="1"><g transform="translate(123.747332, 116.249839)"><g><path d="M -13.609375 -20.4375 L 1.515625 -1.1875 L 2.890625 -2.265625 L 0.6875 -5.0625 C 3.15625 -3.953125 5.765625 -4.171875 7.96875 -5.90625 C 11.640625 -8.796875 11.875 -13.59375 8.515625 -17.875 C 5.15625 -22.140625 0.453125 -23.046875 -3.21875 -20.15625 C -5.421875 -18.421875 -6.28125 -15.96875 -5.78125 -13.296875 L -12.234375 -21.515625 Z M 7.0625 -16.734375 C 9.9375 -13.078125 9.8125 -9.578125 6.796875 -7.203125 C 3.734375 -4.8125 0.328125 -5.53125 -2.546875 -9.1875 C -5.40625 -12.828125 -5.296875 -16.3125 -2.234375 -18.703125 C 0.78125 -21.078125 4.203125 -20.375 7.0625 -16.734375 Z M 7.0625 -16.734375 "/></g></g></g><g fill="#b8adad" fill-opacity="1"><g transform="translate(137.915093, 105.489476)"><g/></g></g><g fill="#b8adad" fill-opacity="1"><g transform="translate(143.220057, 102.292611)"><g/></g></g><g fill="#b8adad" fill-opacity="1"><g transform="translate(147.934498, 99.356873)"><g><path d="M -6.390625 -23.703125 L 1.8125 -0.640625 L 3.453125 -1.234375 L 2.265625 -4.59375 C 4.265625 -2.75 6.796875 -2.109375 9.421875 -3.046875 C 13.84375 -4.625 15.578125 -9.109375 13.75 -14.234375 C 11.9375 -19.34375 7.78125 -21.703125 3.359375 -20.125 C 0.734375 -19.1875 -0.84375 -17.140625 -1.25 -14.453125 L -4.75 -24.296875 Z M 12.015625 -13.625 C 13.578125 -9.25 12.375 -5.953125 8.75 -4.671875 C 5.078125 -3.375 2.0625 -5.15625 0.5 -9.53125 C -1.046875 -13.890625 0.171875 -17.15625 3.84375 -18.453125 C 7.46875 -19.734375 10.46875 -17.984375 12.015625 -13.625 Z M 12.015625 -13.625 "/></g></g></g><g fill="#b8adad" fill-opacity="1"><g transform="translate(164.111616, 93.465474)"><g><path d="M 3.078125 -2.1875 C 2.609375 -5.125 5.796875 -7.28125 8.828125 -9.703125 C 11.671875 -12 14.390625 -14.578125 13.796875 -18.3125 C 13.109375 -22.5625 9.640625 -24.859375 5.15625 -24.140625 C 1.140625 -23.484375 -1.375 -20.234375 -0.984375 -16.109375 L 0.828125 -16.40625 C 0.46875 -19.546875 2.25 -21.90625 5.4375 -22.421875 C 9.03125 -23 11.40625 -21.390625 11.953125 -18.015625 C 12.453125 -14.875 10.109375 -12.921875 7.5 -10.875 C 4.28125 -8.375 0.6875 -5.734375 1.484375 -0.734375 L 1.5625 -0.25 L 16.171875 -2.59375 L 15.90625 -4.25 Z M 3.078125 -2.1875 "/></g></g></g><g fill="#b8adad" fill-opacity="1"><g transform="translate(179.866775, 90.679572)"><g><path d="M 2.484375 -24.4375 L 1.921875 0.046875 L 3.671875 0.078125 L 3.75 -3.484375 C 4.96875 -1.046875 7.109375 0.4375 9.90625 0.5 C 14.59375 0.609375 17.8125 -2.953125 17.9375 -8.40625 C 18.0625 -13.828125 15 -17.515625 10.3125 -17.625 C 7.515625 -17.6875 5.3125 -16.328125 3.984375 -13.953125 L 4.234375 -24.40625 Z M 16.09375 -8.453125 C 15.984375 -3.796875 13.671875 -1.15625 9.828125 -1.25 C 5.9375 -1.328125 3.765625 -4.078125 3.875 -8.734375 C 3.984375 -13.359375 6.265625 -15.953125 10.15625 -15.875 C 14 -15.78125 16.203125 -13.078125 16.09375 -8.453125 Z M 16.09375 -8.453125 "/></g></g></g><g fill="#b8adad" fill-opacity="1"><g transform="translate(197.639999, 91.373957)"><g/></g></g><g fill="#b8adad" fill-opacity="1"><g transform="translate(203.767564, 92.277047)"><g/></g></g><g fill="#b8adad" fill-opacity="1"><g transform="translate(209.277168, 93.007886)"><g><path d="M 10.140625 -22.375 L 1.8125 0.65625 L 3.453125 1.25 L 4.671875 -2.09375 C 5.03125 0.59375 6.59375 2.6875 9.21875 3.640625 C 13.625 5.234375 17.8125 2.875 19.671875 -2.25 C 21.515625 -7.359375 19.796875 -11.8125 15.390625 -13.40625 C 12.765625 -14.359375 10.234375 -13.765625 8.234375 -11.9375 L 11.78125 -21.78125 Z M 17.9375 -2.875 C 16.34375 1.5 13.328125 3.265625 9.71875 1.953125 C 6.046875 0.640625 4.859375 -2.65625 6.453125 -7.03125 C 8.03125 -11.390625 11.015625 -13.125 14.6875 -11.8125 C 18.296875 -10.5 19.515625 -7.234375 17.9375 -2.875 Z M 17.9375 -2.875 "/></g></g></g><g fill="#b8adad" fill-opacity="1"><g transform="translate(225.513243, 98.740585)"><g><path d="M 3.765625 0.28125 C 5.265625 -2.296875 9.109375 -1.921875 12.984375 -1.890625 C 16.640625 -1.84375 20.359375 -2.109375 22.265625 -5.375 C 24.4375 -9.078125 23.25 -13.0625 19.328125 -15.359375 C 15.8125 -17.40625 11.796875 -16.484375 9.46875 -13.0625 L 11.0625 -12.125 C 12.796875 -14.8125 15.65625 -15.484375 18.4375 -13.859375 C 21.578125 -12.015625 22.40625 -9.265625 20.671875 -6.3125 C 19.0625 -3.5625 16.03125 -3.546875 12.703125 -3.625 C 8.625 -3.734375 4.171875 -4 1.609375 0.375 L 1.359375 0.796875 L 14.140625 8.265625 L 14.984375 6.828125 Z M 3.765625 0.28125 "/></g></g></g><g fill="#b8adad" fill-opacity="1"><g transform="translate(239.446307, 106.601535)"><g><path d="M 17.4375 -17.296875 L 1.453125 1.25 L 2.78125 2.390625 L 5.109375 -0.3125 C 4.484375 2.34375 5.203125 4.859375 7.3125 6.6875 C 10.859375 9.75 15.625 9.03125 19.1875 4.90625 C 22.734375 0.796875 22.703125 -3.984375 19.15625 -7.046875 C 17.046875 -8.875 14.46875 -9.234375 11.9375 -8.234375 L 18.765625 -16.15625 Z M 17.78125 3.703125 C 14.75 7.234375 11.28125 7.796875 8.375 5.28125 C 5.421875 2.75 5.5 -0.75 8.53125 -4.28125 C 11.5625 -7.78125 14.96875 -8.328125 17.921875 -5.796875 C 20.828125 -3.28125 20.8125 0.203125 17.78125 3.703125 Z M 17.78125 3.703125 "/></g></g></g><g fill="#b8adad" fill-opacity="1"><g transform="translate(252.723647, 118.431337)"><g/></g></g><g fill="#b8adad" fill-opacity="1"><g transform="translate(256.880776, 123.022737)"><g/></g></g><g fill="#b8adad" fill-opacity="1"><g transform="translate(260.674163, 127.089841)"><g><path d="M 22.046875 -10.828125 L 0.984375 1.65625 L 1.875 3.15625 L 4.9375 1.34375 C 3.515625 3.65625 3.390625 6.25 4.8125 8.65625 C 7.203125 12.6875 11.9375 13.53125 16.625 10.75 C 21.296875 8 22.78125 3.453125 20.390625 -0.578125 C 18.96875 -2.984375 16.65625 -4.125 13.953125 -4 L 22.9375 -9.328125 Z M 15.671875 9.171875 C 11.671875 11.546875 8.21875 10.984375 6.265625 7.671875 C 4.28125 4.328125 5.453125 1.03125 9.453125 -1.34375 C 13.4375 -3.6875 16.859375 -3.125 18.84375 0.21875 C 20.796875 3.53125 19.65625 6.828125 15.671875 9.171875 Z M 15.671875 9.171875 "/></g></g></g><g fill="#b8adad" fill-opacity="1"><g transform="translate(269.568538, 141.834894)"><g><path d="M 2.734375 2.609375 C 5.546875 1.578125 8.25 4.296875 11.234375 6.796875 C 14.03125 9.15625 17.0625 11.3125 20.609375 10.015625 C 24.640625 8.53125 26.25 4.6875 24.671875 0.421875 C 23.265625 -3.390625 19.578125 -5.21875 15.625 -4.0625 L 16.265625 -2.328125 C 19.28125 -3.296875 21.921875 -1.984375 23.03125 1.03125 C 24.296875 4.4375 23.1875 7.078125 19.96875 8.265625 C 16.984375 9.359375 14.625 7.4375 12.109375 5.265625 C 9.046875 2.59375 5.765625 -0.4375 1 1.3125 L 0.546875 1.484375 L 5.65625 15.359375 L 7.21875 14.78125 Z M 2.734375 2.609375 "/></g></g></g><g fill="#b8adad" fill-opacity="1"><g transform="translate(275.328589, 156.758248)"><g><path d="M 24.453125 -2.265625 L 0.328125 1.890625 L 0.625 3.625 L 4.140625 3.015625 C 1.984375 4.65625 0.921875 7.046875 1.40625 9.8125 C 2.203125 14.421875 6.328125 16.890625 11.703125 15.96875 C 17.046875 15.046875 20.0625 11.34375 19.265625 6.734375 C 18.78125 3.96875 17.046875 2.0625 14.453125 1.234375 L 24.75 -0.53125 Z M 11.390625 14.15625 C 6.796875 14.953125 3.765625 13.1875 3.125 9.40625 C 2.453125 5.578125 4.71875 2.921875 9.3125 2.125 C 13.859375 1.34375 16.859375 3.09375 17.53125 6.921875 C 18.171875 10.703125 15.9375 13.375 11.390625 14.15625 Z M 11.390625 14.15625 "/></g></g></g></svg>