<?xml version="1.0" encoding="UTF-8"?>
<svg id="Ebene_1" data-name="Ebene 1" xmlns="http://www.w3.org/2000/svg" viewBox="0 0 2194 364">
  <defs>
    <style>
      .cls-1 {
        fill: #b9aeae;
        stroke-width: 0px;
      }
    </style>
  </defs>
  <path class="cls-1" d="M1071.23,299.72h11.01V68.45h-60.57v192.73c0,21.29,22.19,38.55,49.56,38.55Z"/>
  <path class="cls-1" d="M680.26,106.99v154.19c0,21.29,22.19,38.55,49.56,38.55h181.71c27.37,0,49.56-17.26,49.56-38.55V106.99c0-21.29-22.19-38.55-49.56-38.55h-181.71c-27.37,0-49.56,17.26-49.56,38.55ZM900.53,250.17c0,6.08-4.93,11.01-11.02,11.01h-137.66c-6.08,0-11.01-4.93-11.01-11.01V118c0-5.98,4.76-10.84,10.7-11.01t137.98,0c6.08,0,11.02,4.93,11.02,11.01v132.17Z"/>
  <path class="cls-1" d="M1572.32,299.72h181.72c27.37,0,49.56-17.26,49.56-38.55V68.45h-60.57v181.72c0,6.05-4.87,10.95-10.9,11.01h-137.78c-6.08,0-11.01-4.93-11.01-11.01V68.45h-60.57v192.73c0,21.29,22.19,38.55,49.56,38.55Z"/>
  <path class="cls-1" d="M338.86,106.99v154.19c0,21.29,22.19,38.55,49.56,38.55h181.72c27.37,0,49.56-17.26,49.56-38.55V106.99c0-21.29-22.19-38.55-49.56-38.55h-181.72c-27.37,0-49.56,17.26-49.56,38.55ZM559.12,250.17c0,6.08-4.93,11.01-11.01,11.01h-137.66c-6.08,0-11.01-4.93-11.01-11.01V118c0-5.98,4.76-10.84,10.69-11.01t137.98,0c6.08,0,11.01,4.93,11.01,11.01v132.17Z"/>
  <path class="cls-1" d="M1913.72,299.72h11.02V106.99h148.67c6.09,0,11.01,4.93,11.01,11.01v55.07c0,6.08-4.93,11.01-11.01,11.01h-129.4c0,21.29,22.19,38.55,49.56,38.55h101.87c27.37,0,49.56-17.26,49.56-38.55v-77.09c0-21.29-22.19-38.55-49.56-38.55h-231.27v192.73c0,21.29,22.19,38.55,49.56,38.55Z"/>
  <path class="cls-1" d="M1101.51,184.08l113.69,102.37c9.09,8.13,22.48,13.27,37.42,13.27h49.88l-128.42-115.64,128.42-115.64h-49.88c-14.93,0-28.33,5.14-37.42,13.27l-113.69,102.37Z"/>
  <path class="cls-1" d="M85.56,299.72h143.17c27.37,0,49.56-17.26,49.56-38.54H107.58c-6.08,0-11.01-4.93-11.01-11.01V68.45h-60.57v192.73c0,21.29,22.19,38.55,49.56,38.55Z"/>
  <path class="cls-1" d="M1352.06,222.63h110.13c0-21.29-22.19-38.55-49.56-38.55h-110.13c0,21.29,22.19,38.55,49.56,38.55Z"/>
</svg>